<svg xmlns="http://www.w3.org/2000/svg" version="1.1" xmlns:xlink="http://www.w3.org/1999/xlink" xmlns:svgjs="http://svgjs.com/svgjs" width="60.485mm" height="26.067mm"><svg xmlns="http://www.w3.org/2000/svg" width="60.485mm" height="26.067mm" viewBox="0 0 171.454 73.892">
  <path d="M75,16.868a45.932,45.932,0,0,0-6.781-6c-10.6-7.6-23.161-10.889-34.461-9.025-10.21,1.68-18.8,6.476-24.837,13.869C7.56,17.38-4.2,32.5,1.6,50.5,2.88,54.477,8.16,67.809,22.249,72.307a32.162,32.162,0,0,0,9.756,1.585,26.292,26.292,0,0,0,6.517-.817L97.16,57.684c7.8,8.5,17.1,13.448,27.653,14.7a54.1,54.1,0,0,0,6.354.386,39.391,39.391,0,0,0,25.326-8.554c2.191-1.754,13.192-11.318,14.677-27.312.425-4.574,1.554-16.726-7.478-26.689C161.851,8.187,151.948-1.83,137.911.294a26.444,26.444,0,0,0-3.565.809ZM116.51,35.145A21.2,21.2,0,0,0,126.9,45.733l-76.3,20.051c5.335-5.837,7.889-13.947,6.348-21.34A21.971,21.971,0,0,0,46.231,29.8c-.5-.277-1.014-.514-1.529-.742L122.118,8.483a27.982,27.982,0,0,0-4.713,6.331A22.337,22.337,0,0,0,116.51,35.145Zm-85.488-6.5C23.458,31.491,18.8,39.116,20.178,46.383a14.644,14.644,0,0,0,8.935,10.791l.56.212,15.971-3.543-.866-3.905L30.007,53.215a10.778,10.778,0,0,1-5.9-7.58c-1.167-6.131,3.418-11.4,8.324-13.243A14.043,14.043,0,0,1,44.3,33.3a17.921,17.921,0,0,1,8.722,11.957c1.608,7.714-2.185,16.415-9.224,21.159C36.3,71.477,27.84,69.891,23.464,68.5,11.2,64.579,6.539,52.791,5.4,49.271.252,33.284,10.8,19.739,12.018,18.247,17.431,11.62,25.173,7.313,34.407,5.794,44.672,4.1,56.141,7.14,65.888,14.124a40.989,40.989,0,0,1,4.667,3.925ZM137.791,47.005a16.574,16.574,0,0,0,13.4-14.927c.435-6.731-3.552-12.352-10.4-14.669l-.57-.193-14.532,3.846,1.023,3.868L140.057,21.4c4.79,1.828,7.45,5.688,7.143,10.424a12.575,12.575,0,0,1-10.308,11.291c-6.646,1.324-13.538-2.634-16.746-9.632a18.423,18.423,0,0,1,.779-16.763A24.609,24.609,0,0,1,138.511,4.249c12.022-1.818,20.617,6.891,22.218,8.656,7.849,8.658,6.838,19.537,6.458,23.633-1.336,14.385-11.225,22.981-13.194,24.56-7.739,6.2-17.4,8.663-28.707,7.316-9.065-1.076-16.85-4.982-23.71-11.891Z" fill="#a78bfa"></path>
</svg><style>@media (prefers-color-scheme: light) { :root { filter: none; } }
</style></svg>