<svg xmlns="http://www.w3.org/2000/svg" width="512" height="512" viewBox="0 0 512 512">
  <rect width="512" height="512" rx="65.186" fill="#3a3a3a"/>
  <path d="M131.537,442.913c-34.652,0-60.656-21.107-67.8-27.577-41.884-37.9-34.087-94.511-33.06-100.841,4.568-28.1,19.569-53.262,43.382-72.784,22.621-18.559,53.224-28.781,86.171-28.781,5.219,0,10.521.263,15.76.78a136.684,136.684,0,0,1,24.442,4.788L325.074,94.389a79.764,79.764,0,0,1,8.031-7.424c14.542-11.611,32.083-17.494,52.146-17.494a101.671,101.671,0,0,1,29.967,4.471c38.471,12.356,53.678,45.431,59.4,57.882,20,43.5,5.855,84.557,2.815,92.345A117.646,117.646,0,0,1,424.811,284a160.187,160.187,0,0,1-16.791,8.378,125.135,125.135,0,0,1-49.628,10.241,143.744,143.744,0,0,1-41.409-6.366l-123.4,122.143a79.6,79.6,0,0,1-15.837,12,96.367,96.367,0,0,1-27.734,10.523A86.972,86.972,0,0,1,131.537,442.913Zm28.675-211.786c-28.743,0-55.244,8.756-74.62,24.656-20.332,16.666-33.114,37.981-36.964,61.643-.865,5.329-7.455,52.985,27.288,84.435,5.942,5.363,27.526,22.871,55.653,22.87a68.839,68.839,0,0,0,14.6-1.575c12.412-2.72,34.866-10.615,45.726-32.9,10.215-20.924,7.335-46.744-7-62.793A48.66,48.66,0,0,0,148.6,311.2l-.423,0a37.278,37.278,0,0,0-28.564,13.7c-8.788,10.694-12.387,28.706-1.756,41.033a27.9,27.9,0,0,0,20.9,9.415c.337,0,.676-.007,1.015-.018l31.44-28.819a3.3,3.3,0,0,1,2.228-.866c.048,0,.1,0,.143,0a3.3,3.3,0,0,1,2.289,1.066l7.828,8.542a3.3,3.3,0,0,1-.2,4.66l-34.932,32.018a3.292,3.292,0,0,1-1.7.824l-1.712.279a46.024,46.024,0,0,1-6.586.478h0a45.7,45.7,0,0,1-34.473-15.7c-15.026-17.445-14.4-45.151,1.451-64.459.068-.083.14-.163.216-.239l79.606-79.616c-3.7-.745-7.437-1.312-11.175-1.691C169.552,231.36,164.842,231.127,160.212,231.127Zm-8.907,61.955a67.024,67.024,0,0,1,47.173,22.26c12.846,14.38,19.107,34.976,17.291,55.561L365.177,222.927a64.262,64.262,0,0,1-35.154-12.307,68.155,68.155,0,0,1-28.558-54.942,83.748,83.748,0,0,1,.659-12.8Zm180.641-11.655a119.8,119.8,0,0,0,26.509,3.1,105.528,105.528,0,0,0,42.4-8.862c29.473-12.636,49.539-32.181,59.644-58.095,2.566-6.594,14.517-41.358-2.4-78.141-4.817-10.47-17.6-38.263-48.439-48.168a84.046,84.046,0,0,0-24.408-3.644c-15.811,0-29.536,4.558-40.8,13.546a67.551,67.551,0,0,0-24.813,54.1A50.222,50.222,0,0,0,340.6,195.834a47.716,47.716,0,0,0,27.263,9.035,37.149,37.149,0,0,0,24.6-8.922,33.208,33.208,0,0,0,8.693-39.377c-4.582-9.272-13.035-14.414-23.774-14.414a35.75,35.75,0,0,0-4.7.32l-27.594,27.416a3.3,3.3,0,0,1-2.324.959h-.011a3.3,3.3,0,0,1-2.329-.974l-8.168-8.221a3.3,3.3,0,0,1,.014-4.664L363.15,126.3a3.3,3.3,0,0,1,1.68-.895l1.709-.341a55.222,55.222,0,0,1,10.808-1.1c17.773,0,32.4,8.967,40.127,24.6A51.473,51.473,0,0,1,404.765,209.3Z" fill="#9589c1"/>
</svg>
